<svg height="700pt" viewBox="90 240 210 260" width="700pt" xmlns="http://www.w3.org/2000/svg">
<path d="m298.27 358.66c-6.1367-5.4453-17.039-7.0156-26.469 2.4219-5.1328 5.1289-11.363 12.402-17.391 19.43-8.8008 10.266-22.062 26.098-26.016 26.422-1.0703.085937-2.875-2.1484-2.875-16.535l.003906-102.47c0-10.695-8.8047-16.465-17.086-16.465-2.9219 0-5.6719.74609-8.0469 2.0703-.44531-8.5469-7.0508-14.465-16.457-14.465-9.2734 0-18.844 5.9375-19.043 15.887-3.2227-1.9922-7.0625-3.0352-10.816-3.0352-4.5078 0-8.7188 1.3945-11.859 3.9258-3.6641 2.9531-5.6836 7.3438-5.6836 12.359v15.23c-2.6484-1.293-5.6992-1.9609-8.7422-1.9609-8.3398 0-16.785 4.8555-16.785 14.137v124.53c0 24.418 12.848 49.141 37.398 49.141h42.246c27.258 0 48.805-25.691 55.887-34.133 5.1641-6.1562 16.965-22.379 28.375-38.074 9.4297-12.965 19.18-26.371 24.559-33.215 7.332-9.3359 4.9492-19.742-1.1992-25.195zm-5.0273 20.305c-5.4688 6.9609-14.828 19.828-24.734 33.449-11.332 15.582-23.051 31.695-28.039 37.641-6.4922 7.7422-26.258 31.305-49.824 31.305h-42.246c-23.32 0-29.484-26.969-29.484-41.227v-124.52c0-4.9219 5.8047-6.2227 8.8711-6.2227 3.2461 0 8.7422 1.3086 8.7422 6.2227v64.84c0 2.1836 1.7734 3.957 3.957 3.957s3.957-1.7734 3.957-3.957v-92.25c0-2.6484.92188-4.7344 2.7383-6.1992 5.0586-4.0742 17.691-2.5352 17.691 7.043v92.25c0 2.1836 1.7734 3.957 3.957 3.957s3.957-1.7734 3.957-3.957l-.003906-106.03c0-5.7148 6.5195-8.2852 11.148-8.2852 2.0234 0 8.6289.53906 8.6289 7.4414v13.504 93.723c0 2.1836 1.7734 3.957 3.957 3.957s3.957-1.7734 3.957-3.957v-93.723c0-2.875.8125-5.082 2.418-6.5664 1.3867-1.2812 3.3516-1.9844 5.5469-1.9844 3.6875 0 9.1719 2.2773 9.1719 8.5508v102.47c0 9.1445 0 24.449 10.785 24.449 6.3438 0 14.629-8.8945 32.023-29.184 5.9297-6.9141 12.062-14.066 16.977-18.984 5.8438-5.8398 12.055-5.2656 15.625-2.0977 3.3828 2.9961 4.7617 8.6094.22266 14.383z"/><path d="m209.86 412.99c-25.703 0-34.824 25.082-34.824 46.562 0 2.1836 1.7734 3.957 3.957 3.957s3.957-1.7734 3.957-3.957c0-6.4531 1.2969-38.652 26.91-38.652 2.1836 0 3.957-1.7734 3.957-3.957 0-2.1797-1.7734-3.9531-3.957-3.9531z"/><path d="m205.12 405.15c0-2.1836-1.7734-3.957-3.957-3.957h-46.766c-2.1836 0-3.957 1.7734-3.957 3.957s1.7734 3.957 3.957 3.957h46.766c2.1836 0 3.957-1.7734 3.957-3.957z"/><path d="m144 401.2h-9.4688c-2.1836 0-3.957 1.7734-3.957 3.957s1.7734 3.957 3.957 3.957h9.4688c2.1836 0 3.957-1.7734 3.957-3.957s-1.7734-3.957-3.957-3.957z"/></svg>