<svg height="700pt" viewBox="250 30 180 220" width="700pt" xmlns="http://www.w3.org/2000/svg">
<path d="m427.6 151.27c.17969-10.051-2.2266-17.641-7.1484-22.566-.28906-.28906-.60938-.56641-.91406-.84766l.48828-3.6992v-.007812l6.0703-46.148c1.4258-10.828-7.332-19.672-21.293-21.508-10.34-1.3633-21.402 2.0547-25.156 10.914-1.2812-3.8906-3.9375-7.2031-7.8633-9.5859-7.8555-4.7695-19.43-5.0039-27.531-.55859-5.957 3.2656-9.3125 8.6016-9.4531 15.016l-.019531.82422c-3.8945-5.832-11.859-9.2031-21.762-8.6445-10.422.59766-20.688 6.0898-22.242 15.566-4.1562-2.9961-10.227-4.3672-17.25-3.5664-12.602 1.4453-20.664 8.9219-19.602 18.18l5.6836 49.543c.10938.96484.32031 1.8828.60938 2.7617-.24219.55469-.37891 1.168-.37891 1.8125v7.3594c0 8.8281 1.707 38.934 23.648 55.672 9.1055 6.9453 20.258 10.426 33.328 10.426 7.3398 0 15.297-1.1133 23.824-3.3125 3.3594 1.7969 7.2109 2.7109 11.52 2.7109l2.0078.003906c.71875 0 1.4492.003907 2.1992.003907 15.008 0 36.281-.53906 49.293-12.656 9.6367-8.9727 21.566-36.699 21.941-57.691zm-39.566-78.277c.85156-6.4805 9.75-7.7031 15.508-6.9453 4.8906.64453 13.895 3.7031 12.996 10.672-.007812.035156-.011718.070312-.015624.10156l-5.8984 44.848c-7.0039-3.7773-16.27-7.0117-27.711-9.6797zm-44.059 12.066v-.007813l.27734-12.57c.066406-2.9805 1.5938-5.3125 4.5508-6.9297 5.1523-2.8281 13.094-2.6758 18.074.35156 2.8945 1.7578 4.2695 4.1016 4.2031 7.1758l-.003906.03125v.054687l-.71875 36.285c-9.9375-1.7305-19.312-2.6133-26.863-2.5469zm-30.414-11.094c5.5312-.30469 13.887 1.3789 14.277 7.3359.74609 11.441 1.2344 16.625 1.9727 24.469l.27344 2.9336c-12.629 4.1406-18.355 15.379-17.383 25.75.47266 5.0586 2.5859 10.008 6.1211 13.711-3.9961.99219-8.4219.55469-11.684-1.3359-2.9297-1.6953-4.4844-4.2812-4.6211-7.6836l-1.9297-48.473c-.015625-.38672-.089844-.75391-.1875-1.1094-.11328-2.3945-.21875-4.6562-.32031-6.6953-.29688-5.9492 7.8984-8.582 13.48-8.9023zm-45.605 69.184-4.4844-39.07c-.003906-.019531-.003906-.042969-.007812-.066406l-1.1875-10.336c-.55078-4.7852 5.8789-8.1367 12.203-8.8633 5.1758-.59766 13.105.48438 13.723 5.8867l.003906.039062c0 .011719.003907.023438.003907.035157l4.3398 37.824c.085938 2.0547.13672 3.2891.13672 3.3516 0 .042969.015625.078125.015625.12109l.29688 7.4609c.046875 1.1641.21875 2.2734.44531 3.3633-1.543 3.3555-6.6836 5.6367-11.766 6.2188-5.1758.59766-13.105-.48438-13.727-5.8867zm86.234 69.332-2.0234-.003907c-4.4531 0-7.918-1.3867-10.598-4.2461-7.375-7.8633-6.4492-23.777-6.4375-23.938.16406-2.5117-1.7383-4.6836-4.25-4.8555-2.5352-.15234-4.6914 1.7344-4.8594 4.25-.050782.73828-.99219 16.727 6.4805 27.715-18.125 3.6133-32.727 1.3125-43.473-6.8828-14.785-11.277-20.055-32.402-20.055-48.41v-.25c2.8125 1.1797 6.1211 1.8281 9.793 1.8281 1.2578 0 2.5547-.074219 3.8867-.22656 6.3516-.73047 11.547-2.9922 15.004-6.2422 1.3203 1.4727 2.8789 2.7773 4.7148 3.8398 3.5938 2.082 7.9023 3.125 12.266 3.125 4.1797 0 8.4062-.96094 12.09-2.8828.72656-.37891 1.293-.92969 1.7188-1.5625 2.1172.51172 4.4219.72266 6.918.54688 28.688-2.0742 36.281 8.6523 36.535 9.0312 1.2773 2.1211 4.0195 2.8438 6.1836 1.6016 2.1875-1.2539 2.9414-4.0469 1.6836-6.2305-.94531-1.6445-10.25-16.02-45.062-13.508-8.1172.58594-12.336-5.3984-12.914-11.582-.71094-7.5898 3.8906-15.859 15.781-17.234 7.5156-.87109 19.555-.03125 32.207 2.2422 21.746 3.9062 37.449 9.7852 44.215 16.551 3.0625 3.0586 4.6094 8.5742 4.4766 15.945-.34766 19.41-11.781 44.422-19.023 51.164-11.031 10.273-31.625 10.203-45.258 10.215z"/>
</svg>