<svg height="700pt" viewBox="400 200 200 300" width="700pt" xmlns="http://www.w3.org/2000/svg">
<path d="m578.45 251.38c-10.363-2.8242-19.539 1.9609-22.27 11.5-5.1992 16.242-21.516 76.27-27.465 100.55-.039063.019531-.21875.039062-.41797-.054688-.16797-.078125-.26562-.20312-.32422-.41016-3.6133-12.426-11.914-47.016-17.977-72.27-2.8789-11.996-5.2539-21.883-6.3867-26.316-2.5938-10.172-11.609-15.441-22.379-13.121-10.465 2.2539-20.066 11.566-17.961 23.492 2.9023 12.297 10.293 48.574 13.906 66.43-2.0664-.55859-4.3164-.84766-6.7422-.75-6.7656.3125-13.453 3.6289-16.512 9.5625-1.6133-2.1914-3.8438-3.9492-6.6289-5.1602-7.0625-3.0586-16.695-1.9414-22.91 2.668-4.793 3.5547-7.0742 8.6406-6.4219 14.324l5.9609 51.961.007813.074219c.27344 2.3984 1.0508 4.5586 2.2344 6.4492v5.2539c0 29.02 15.219 58.395 44.312 58.395 7.7617 0 12.953-.96094 16.691-2.2852 4.2695 1.8203 14.051 2.832 25.508 2.832 20.445 0 45.996-3.1992 54.008-10.66 8.0312-7.4766 13.789-21.258 14.008-33.512.16406-9.1055-2.6562-16.824-8.1523-22.324-1.3047-1.3047-3.5508-2.8359-6.6172-4.582 3.6289-18.766 23.23-119.9 27.535-137.52 3.1992-12.41-5.3477-21.898-15.008-24.527zm-107.63 97.492c.97266-.070312 9.4883-.22266 9.8789 7.2227.57031 10.848.94141 15.766 1.5039 23.207l.19141 2.5391c-5.2305 2.0312-9.6328 6.3125-12.301 11.375-4.0039 7.5938-4.5391 17.852 2.3281 24.762-2.1055-.066407-4.1562-.54297-5.832-1.5156-2.3398-1.3516-3.5977-3.4023-3.8047-6.0586-.019531-.33203-.011718-.66016-.050781-.99609l-.042969-.39062-.85156-21.383-1.1914-29.93c-.26563-6.6016 6.5391-8.6641 10.172-8.832zm-41.406 5.418c3.8164-2.8281 10.188-3.582 14.516-1.7031 2.6367 1.1445 4.1289 3.0781 4.4375 5.75l4.7188 41.113c0 .015625.003906.03125.003906.050781l1.168 10.184.023438.625.003906.074219c.007813.15625.035156.30078.046875.45703.12891 2.4219-.86328 4.4844-3.0547 6.1055-3.8164 2.8281-10.191 3.582-14.516 1.7031-2.6367-1.1445-4.1289-3.0781-4.4375-5.75l-4.7188-41.113c0-.015624-.003907-.03125-.003907-.050781l-1.2461-10.875c-.30078-2.6328.72656-4.8438 3.0586-6.5703zm142.83 85.891c-.20313 11.309-5.8477 22.387-11.316 27.48-8.3672 7.7891-46.578 9.6328-63.453 7.7461.48047-.28906.94531-.51562 1.4844-.67188 2.2383-.64844 3.5312-2.9961 2.8789-5.2344-.64844-2.2383-2.9922-3.5273-5.2344-2.8789-2.8594.83203-4.7656 2.3359-6.4453 3.6641-3.0938 2.4453-6.6055 5.2188-19.676 5.2188-27.734 0-35.496-31.191-35.828-48.727 2.3633.83594 4.9102 1.3359 7.5352 1.3359 5.0703 0 10.262-1.5156 14.129-4.3828 1.0195-.75781 1.9023-1.5977 2.6914-2.4844.97656.95312 2.0977 1.8008 3.3516 2.5273 3.0859 1.7891 6.793 2.6875 10.543 2.6875 3.2305 0 6.4766-.70312 9.4062-2.043 13.785 7.5742 41.395 21.992 42.762 22.707 2.0625 1.082 4.6172.27734 5.6992-1.793 1.0781-2.0664.27734-4.6211-1.793-5.6992-.39062-.20312-39.16-20.449-48.125-25.723-6.8242-4.0117-6.0312-11.535-3.2773-16.754 2.9453-5.5859 9.0859-10.195 15.617-7.1406 5.2344 2.4531 13.215 5.8438 22.449 9.7656 18.5 7.8594 46.457 19.734 50.93 24.203 4.8398 4.8477 5.7539 11.484 5.6719 16.195zm13.02-166.33c-4.2578 17.43-22.508 111.44-27.16 135.5-9.6016-4.707-23.098-10.516-39.164-17.34-9.1602-3.8945-17.07-7.2539-22.168-9.6406-2.0195-.94531-4.0273-1.4883-5.9922-1.6953l-.15234-2.0078c-.55859-7.3828-.92578-12.262-1.4922-23.012-.12891-2.4375-.75-4.6484-1.7617-6.5977-1.2695-6.3086-12.18-60.516-15.84-76.004-1.1719-6.6719 4.9102-12.117 11.469-13.527 3.0312-.65234 10.312-1.2812 12.414 6.9531 1.125 4.4141 3.4883 14.258 6.3555 26.199 6.082 25.336 14.414 60.035 18.082 72.652 1.1484 3.9531 4.8672 6.7266 8.9258 6.5703 3.9766-.082032 7.1641-2.6445 8.125-6.5312 6.4258-26.062 22.512-84.887 27.359-100.03 1.7773-6.2031 7.5625-6.9922 11.965-5.8008 5.7305 1.5508 11 6.6836 9.0352 14.316z"/>
</svg>